<?xml version="1.0" encoding="UTF-8" ?>
<!DOCTYPE svg PUBLIC "-//W3C//DTD SVG 1.1//EN" "http://www.w3.org/Graphics/SVG/1.1/DTD/svg11.dtd">
<svg width="512pt" height="512pt" viewBox="0 0 512 512" version="1.1" xmlns="http://www.w3.org/2000/svg">
<g id="#fd4345ff">
<path fill="#fd4345" opacity="1.00" d=" M 237.56 103.94 C 271.22 99.91 306.39 107.08 335.24 125.08 C 351.50 135.02 365.97 147.99 377.61 163.09 C 404.56 198.00 414.99 244.95 405.63 288.02 C 396.03 334.17 363.65 374.95 320.81 394.66 C 284.98 411.69 242.45 413.68 205.06 400.54 C 185.38 393.40 166.81 382.71 151.72 368.10 C 132.17 350.49 117.72 327.40 109.80 302.34 C 101.87 276.86 100.38 249.27 106.17 223.19 C 112.09 195.86 125.78 170.24 145.27 150.19 C 169.34 124.58 202.60 107.84 237.56 103.94 M 206.53 119.88 C 162.37 135.50 127.40 174.25 115.83 219.57 C 108.25 248.65 110.27 280.06 120.84 308.15 C 133.34 340.63 158.03 368.03 188.85 384.13 C 189.34 384.40 190.31 384.93 190.79 385.19 C 196.97 388.26 203.40 390.80 209.91 393.08 C 210.90 393.40 211.88 393.72 212.87 394.07 C 238.40 402.22 266.18 402.28 292.14 396.12 C 311.69 390.68 330.17 381.56 346.13 369.00 C 365.12 353.45 380.50 333.35 389.79 310.57 C 408.18 265.96 402.30 212.16 374.14 172.89 C 352.29 141.57 317.70 119.42 279.98 113.15 C 255.46 109.45 229.83 111.05 206.53 119.88 Z" />
<path fill="#fd4345" opacity="1.00" d=" M 244.04 167.51 C 247.90 164.91 252.03 162.74 256.00 160.30 C 259.94 162.73 264.09 164.81 267.95 167.38 C 272.41 166.20 276.81 164.61 281.42 164.13 C 284.20 167.16 287.16 170.03 290.10 172.90 C 294.57 173.22 299.27 172.35 303.61 173.36 C 306.19 177.15 308.08 181.38 310.65 185.18 C 314.95 186.20 319.20 187.43 323.50 188.46 C 324.65 192.61 325.80 196.76 326.85 200.93 C 330.68 203.28 334.62 205.44 338.50 207.70 C 338.55 212.16 338.31 216.63 338.60 221.09 C 341.28 224.62 344.75 227.48 347.88 230.61 C 347.55 235.24 345.64 239.53 344.68 244.02 C 345.91 248.35 349.19 251.77 350.87 255.93 C 349.61 260.79 343.80 264.61 345.60 269.99 C 346.49 273.36 347.47 276.71 348.38 280.08 C 345.07 283.28 341.93 286.63 338.59 289.80 C 338.39 294.28 338.46 298.78 338.49 303.27 C 334.64 305.58 330.79 307.88 326.86 310.05 C 325.50 314.41 324.35 318.84 323.21 323.27 C 319.08 324.44 314.83 325.28 310.80 326.79 C 307.64 330.43 306.42 335.50 303.09 338.96 C 298.38 339.34 293.63 338.68 288.95 339.43 C 286.48 342.45 283.59 345.07 280.92 347.89 C 276.56 346.97 272.36 345.25 267.93 344.70 C 263.82 346.84 259.91 349.37 255.91 351.73 C 251.96 349.48 248.20 346.81 243.98 345.09 C 239.53 345.60 235.31 347.33 230.97 348.40 C 227.83 345.39 225.06 341.93 221.58 339.30 C 217.24 338.46 212.57 339.81 208.37 338.62 C 205.77 334.86 203.95 330.60 201.30 326.86 C 196.97 325.87 192.71 324.60 188.39 323.59 C 187.21 319.44 185.95 315.31 185.08 311.09 C 181.24 308.73 177.29 306.56 173.40 304.30 C 173.42 299.78 173.41 295.25 173.39 290.73 C 170.13 287.52 166.92 284.27 163.66 281.05 C 164.98 276.39 166.30 271.73 167.41 267.01 C 165.14 263.46 162.81 259.89 161.11 256.03 C 162.61 252.16 165.54 249.01 166.83 245.06 C 166.09 240.54 164.54 236.22 163.38 231.80 C 166.70 228.55 169.87 225.14 173.35 222.04 C 173.50 217.59 173.44 213.14 173.43 208.68 C 177.00 206.51 180.73 204.60 184.24 202.31 C 185.46 201.74 185.48 200.25 185.90 199.16 C 186.84 195.68 187.75 192.20 188.70 188.72 C 192.94 187.64 197.16 186.46 201.39 185.31 C 203.82 181.40 205.79 177.20 208.37 173.39 C 213.06 172.22 218.23 173.51 223.08 172.61 C 225.67 169.81 228.10 166.74 231.16 164.46 C 235.50 165.26 239.67 166.84 244.04 167.51 M 249.69 168.28 C 252.80 171.91 257.87 169.98 261.78 169.16 C 261.74 168.85 261.68 168.23 261.64 167.91 C 259.76 166.99 257.96 165.91 256.00 165.15 C 253.82 166.03 251.79 167.24 249.69 168.28 M 232.12 168.69 C 231.36 169.48 230.60 170.26 229.83 171.03 C 229.56 171.53 229.02 172.53 228.75 173.03 C 232.05 172.99 236.18 173.30 238.17 170.03 C 236.14 169.62 234.13 169.16 232.12 168.69 M 273.54 170.37 C 276.54 172.48 280.07 173.43 283.72 172.86 C 282.55 171.23 281.23 169.71 279.89 168.22 C 277.74 168.82 275.58 169.44 273.54 170.37 M 221.76 178.58 C 223.63 179.51 226.19 178.57 225.89 176.17 C 224.47 176.90 223.10 177.71 221.76 178.58 M 210.63 176.74 C 209.65 178.95 208.55 181.10 207.57 183.31 C 212.01 183.09 215.58 180.26 218.20 176.88 C 215.68 176.78 213.15 176.77 210.63 176.74 M 230.07 181.64 C 223.55 183.04 218.27 187.27 212.52 190.38 C 206.08 193.68 201.67 199.60 196.43 204.40 C 191.32 209.04 188.84 215.64 185.22 221.36 C 181.57 226.90 180.80 233.63 178.83 239.83 C 176.49 246.99 177.65 254.61 177.36 262.00 C 176.91 269.82 179.73 277.28 181.98 284.63 C 185.57 291.60 189.60 298.37 193.63 305.09 C 198.23 310.51 203.43 315.43 208.67 320.23 C 215.75 323.66 222.03 328.96 229.89 330.56 C 235.63 331.92 241.26 333.82 247.09 334.76 C 252.73 335.10 258.39 334.95 264.04 334.88 C 270.02 334.23 275.70 332.06 281.54 330.69 C 287.97 329.34 293.14 325.09 298.83 322.08 C 305.19 319.02 309.49 313.26 314.54 308.55 C 321.31 302.52 324.60 293.82 329.19 286.20 C 329.48 285.20 329.79 284.19 330.12 283.20 C 331.30 278.14 332.92 273.19 334.12 268.14 C 334.99 261.80 334.36 255.36 334.56 248.97 C 334.92 243.07 332.69 237.53 331.29 231.91 C 329.35 223.75 323.81 217.20 320.22 209.78 C 317.05 204.43 312.05 200.59 307.87 196.09 C 303.74 191.54 297.92 189.22 292.80 186.01 C 285.98 181.57 277.69 180.81 270.10 178.36 C 264.22 176.50 258.01 177.18 251.95 177.05 C 244.38 176.80 237.35 180.06 230.07 181.64 M 285.82 177.24 C 287.48 178.16 289.18 179.03 290.86 179.94 C 290.50 179.03 290.13 178.13 289.77 177.23 C 288.45 177.21 287.13 177.22 285.82 177.24 M 294.62 177.15 C 297.08 180.32 300.22 183.08 304.44 183.26 C 303.55 181.08 302.47 179.00 301.28 176.98 C 299.06 177.05 296.84 177.09 294.62 177.15 M 205.60 188.26 C 204.33 188.61 202.96 189.33 202.33 190.52 C 202.81 192.49 207.64 189.11 205.60 188.26 M 191.88 191.88 C 191.29 194.05 190.71 196.23 190.21 198.43 C 194.34 197.56 196.92 194.10 198.33 190.37 C 196.17 190.84 194.04 191.39 191.88 191.88 M 313.61 190.10 C 314.55 194.36 318.30 196.46 321.94 198.11 C 321.47 195.95 320.94 193.80 320.41 191.66 C 318.15 191.12 315.88 190.56 313.61 190.10 M 320.03 201.93 C 321.52 203.55 323.00 205.19 324.30 206.98 C 325.18 204.11 322.22 202.79 320.03 201.93 M 189.53 203.32 C 188.44 204.01 187.81 204.98 187.63 206.22 C 188.97 208.72 192.56 202.47 189.53 203.32 M 177.40 210.87 C 177.38 213.05 177.38 215.22 177.44 217.40 C 180.97 215.41 183.06 211.82 183.21 207.81 C 181.27 208.82 179.35 209.87 177.40 210.87 M 328.90 206.97 C 329.17 208.78 329.47 210.59 329.73 212.41 C 331.25 214.10 332.85 215.73 334.51 217.30 C 334.57 214.79 334.57 212.28 334.55 209.77 C 332.67 208.83 330.79 207.88 328.90 206.97 M 332.14 219.94 C 332.76 222.19 333.58 224.38 334.68 226.45 C 336.34 223.95 333.72 221.64 332.14 219.94 M 178.66 222.38 C 177.65 223.14 176.31 224.61 177.03 225.96 C 178.72 226.74 181.34 221.64 178.66 222.38 M 338.55 227.39 C 337.97 231.71 338.63 236.27 341.91 239.40 C 342.62 236.94 343.28 234.46 343.86 231.96 C 342.18 230.34 340.46 228.75 338.55 227.39 M 168.26 231.93 C 168.46 234.50 167.80 238.07 170.68 239.31 C 171.50 237.80 172.34 236.30 173.23 234.84 C 173.43 232.47 173.47 230.10 173.45 227.74 C 171.72 229.13 170.03 230.58 168.26 231.93 M 172.14 243.43 C 171.43 244.61 171.50 246.39 172.27 247.54 C 173.76 247.38 173.59 243.62 172.14 243.43 M 338.69 243.13 C 338.17 244.19 338.22 247.17 339.86 246.95 C 340.80 245.92 340.46 242.68 338.69 243.13 M 343.06 261.29 C 344.45 259.68 345.61 257.90 346.64 256.05 C 345.35 254.47 345.02 251.61 342.91 250.99 C 341.00 254.28 342.17 257.90 343.06 261.29 M 168.47 251.28 C 167.39 252.81 166.38 254.39 165.38 255.97 C 166.46 257.88 167.60 259.77 168.96 261.50 C 170.34 258.14 169.97 254.52 168.47 251.28 M 339.37 262.48 C 339.34 263.42 339.26 265.32 339.23 266.27 C 339.04 266.80 338.65 267.85 338.46 268.38 C 341.27 267.47 340.28 264.45 339.37 262.48 M 170.07 272.59 C 169.31 275.02 168.64 277.49 168.06 279.97 C 169.73 281.61 171.44 283.22 173.33 284.61 C 173.91 280.30 173.34 275.75 170.07 272.59 M 338.43 284.24 C 340.18 282.78 341.90 281.27 343.73 279.90 C 343.64 277.35 343.07 274.84 342.14 272.47 C 338.77 275.43 337.98 279.96 338.43 284.24 M 176.30 284.35 C 176.63 285.90 177.00 287.45 177.33 289.02 C 178.25 289.36 179.18 289.71 180.12 290.05 C 179.16 287.95 178.34 285.64 176.30 284.35 M 334.50 285.89 C 333.43 286.94 332.23 288.57 332.36 290.13 C 334.18 290.76 336.28 286.79 334.50 285.89 M 177.50 295.41 C 177.39 297.67 177.37 299.94 177.35 302.22 C 179.27 303.25 181.19 304.29 183.16 305.25 C 182.68 301.32 181.21 297.37 177.50 295.41 M 328.36 304.43 C 330.49 303.50 332.55 302.40 334.59 301.28 C 334.56 299.04 334.52 296.80 334.45 294.57 C 330.81 296.54 328.71 300.39 328.36 304.43 M 192.43 309.92 C 190.99 308.17 189.35 306.58 187.83 304.89 C 186.75 307.98 189.51 310.04 192.43 309.92 M 323.50 305.25 C 322.27 305.91 321.10 307.63 321.54 309.07 C 323.21 309.96 325.36 305.89 323.50 305.25 M 313.63 321.86 C 315.81 321.38 317.98 320.84 320.15 320.28 C 320.64 318.03 321.23 315.80 321.71 313.55 C 317.54 314.46 314.93 318.02 313.63 321.86 M 189.93 313.88 C 190.37 316.10 190.87 318.32 191.42 320.52 C 193.73 321.13 196.06 321.64 198.40 322.11 C 197.50 317.78 193.62 315.58 189.93 313.88 M 305.54 323.51 C 305.73 323.81 306.11 324.42 306.31 324.72 C 307.92 323.57 308.85 321.85 309.34 319.96 C 308.06 321.13 306.81 322.33 305.54 323.51 M 203.11 322.14 C 202.36 323.50 204.63 324.87 205.69 323.93 C 206.42 322.59 204.14 321.20 203.11 322.14 M 207.57 328.79 C 208.50 330.88 209.38 333.08 210.90 334.85 C 212.79 335.00 214.71 334.90 216.61 334.86 C 215.54 333.30 214.65 331.54 213.11 330.39 C 211.35 329.58 209.42 329.25 207.57 328.79 M 294.41 334.87 C 296.74 334.92 299.08 334.91 301.41 334.82 C 302.46 332.80 303.52 330.77 304.46 328.70 C 300.21 328.91 296.69 331.40 294.41 334.87 M 288.62 332.78 C 287.51 333.36 286.42 333.99 285.41 334.73 C 286.75 334.69 288.10 334.62 289.46 334.52 C 289.64 333.32 289.83 332.12 290.01 330.93 C 289.67 331.39 288.97 332.32 288.62 332.78 M 226.46 334.89 C 224.84 333.78 223.14 332.78 221.43 331.83 C 221.81 334.40 223.94 335.53 226.46 334.89 M 227.54 339.09 C 228.99 340.78 230.54 342.40 232.11 344.00 C 234.28 343.39 236.46 342.78 238.61 342.06 C 235.58 339.23 231.52 338.64 227.54 339.09 M 243.07 339.19 C 241.83 341.42 247.89 341.24 246.93 339.12 C 245.63 338.42 244.34 338.44 243.07 339.19 M 273.39 341.82 C 275.54 342.45 277.72 343.00 279.91 343.49 C 281.10 342.01 282.34 340.56 283.51 339.06 C 279.90 338.78 276.04 339.03 273.39 341.82 M 249.66 343.06 C 251.53 344.62 253.54 346.11 255.88 346.88 C 257.90 346.07 259.77 344.95 261.73 344.02 C 261.73 343.68 261.72 343.00 261.72 342.66 C 257.77 341.09 253.58 341.79 249.66 343.06 Z" />
<path fill="#fd4345" opacity="1.00" d=" M 133.48 214.66 C 133.57 214.59 133.75 214.46 133.84 214.40 L 133.48 214.66 Z" />
</g>
<g id="#ffbd59ff">
<path fill="#ffbd59" opacity="1.00" d=" M 252.16 117.09 C 253.40 116.37 254.59 115.52 255.99 115.13 C 257.38 115.53 258.59 116.36 259.84 117.08 C 262.15 118.46 264.50 119.77 266.85 121.11 C 268.63 122.13 270.41 123.19 272.04 124.45 C 278.80 123.84 285.12 120.99 291.75 119.70 C 296.51 124.18 301.02 128.92 305.67 133.51 C 312.46 133.75 319.29 133.22 326.05 133.76 C 326.32 134.06 326.86 134.66 327.13 134.97 C 328.86 138.47 331.00 141.75 332.84 145.20 C 334.35 147.41 335.17 150.26 337.34 151.91 C 343.33 153.58 349.36 155.11 355.37 156.73 C 357.08 162.87 358.53 169.09 360.54 175.14 C 362.33 176.07 364.10 177.06 365.84 178.08 C 368.17 179.42 370.51 180.74 372.82 182.13 C 374.45 183.05 376.08 183.96 377.74 184.84 C 377.68 191.70 377.81 198.56 377.66 205.41 C 382.26 210.16 387.03 214.75 391.63 219.50 C 389.87 225.31 388.49 231.21 386.94 237.07 C 386.32 238.53 387.12 239.92 387.71 241.23 C 389.24 243.45 390.54 245.83 391.86 248.19 C 393.39 250.82 394.88 253.46 396.48 256.05 C 395.91 256.95 395.35 257.86 394.80 258.77 C 393.85 260.48 392.89 262.18 391.92 263.88 C 390.31 266.90 388.20 269.70 387.08 272.96 C 388.44 279.69 390.61 286.24 392.31 292.89 C 387.41 297.76 382.55 302.66 377.67 307.55 C 377.79 313.74 377.69 319.94 377.73 326.14 C 376.10 327.04 374.47 327.96 372.86 328.89 C 371.19 329.90 369.50 330.88 367.81 331.85 C 365.49 333.23 363.16 334.58 360.90 336.05 C 360.39 338.68 359.69 341.27 358.92 343.84 C 357.88 347.97 356.94 352.13 355.57 356.17 C 348.94 357.77 342.32 359.45 335.85 361.58 C 333.34 366.40 330.58 371.08 327.82 375.76 C 327.30 376.74 326.79 377.73 326.29 378.72 C 319.72 378.70 313.15 378.78 306.57 378.67 C 302.08 383.27 297.46 387.75 292.97 392.37 C 286.95 390.76 280.98 388.95 274.93 387.46 C 273.43 386.88 272.08 387.99 270.82 388.62 C 267.82 390.36 264.87 392.18 261.83 393.86 C 259.88 395.05 257.90 396.21 255.95 397.40 C 253.36 395.90 250.75 394.42 248.17 392.90 C 245.82 391.58 243.46 390.28 241.23 388.76 C 239.93 388.15 238.51 387.32 237.05 388.01 C 231.46 389.59 225.85 391.07 220.26 392.67 C 215.77 387.88 210.99 383.38 206.42 378.67 C 199.52 378.79 192.61 378.70 185.70 378.73 C 185.19 377.73 184.69 376.75 184.18 375.77 C 182.76 373.49 181.47 371.15 180.16 368.82 C 178.52 366.15 177.19 363.30 175.41 360.72 C 169.37 358.57 163.02 357.25 156.83 355.55 C 155.24 349.69 153.52 343.86 152.13 337.96 C 150.54 336.85 148.90 335.81 147.25 334.80 C 145.52 333.87 143.82 332.91 142.14 331.92 C 139.57 330.41 136.98 328.94 134.29 327.64 C 133.55 320.73 134.28 313.76 133.86 306.84 C 133.68 305.69 132.62 305.01 131.93 304.18 C 128.08 300.43 124.36 296.56 120.47 292.87 C 122.04 286.57 123.96 280.35 125.36 274.01 C 124.77 270.97 122.49 268.55 121.18 265.78 C 119.29 262.53 117.47 259.24 115.53 256.02 C 117.11 253.43 118.60 250.79 120.14 248.17 C 121.45 245.78 122.74 243.36 124.39 241.18 C 125.65 237.68 123.74 234.20 123.07 230.79 C 121.96 226.78 120.54 222.80 120.13 218.63 C 124.85 214.17 129.35 209.50 133.95 204.92 C 134.13 198.91 133.75 192.88 134.13 186.89 C 135.59 184.46 138.87 183.72 141.14 182.12 C 142.80 181.10 144.50 180.11 146.21 179.16 C 147.84 178.16 149.60 177.31 150.98 175.95 C 153.05 169.46 154.41 162.76 156.24 156.19 C 162.59 154.54 168.98 152.98 175.25 151.04 C 177.09 149.57 177.86 147.14 179.14 145.20 C 180.93 141.99 182.78 138.82 184.62 135.65 C 184.90 135.13 185.46 134.08 185.74 133.56 C 192.28 133.53 198.83 133.59 205.37 133.52 C 209.26 129.70 213.10 125.83 216.93 121.95 C 217.82 121.26 218.57 119.82 219.93 120.26 C 226.11 121.32 231.97 123.79 238.16 124.84 C 243.14 122.98 247.45 119.58 252.16 117.09 M 248.41 126.00 C 248.35 126.47 248.23 127.41 248.16 127.88 C 253.48 129.80 259.56 129.62 264.28 126.26 C 263.51 125.91 261.96 125.22 261.19 124.88 C 259.50 123.88 257.83 122.82 256.01 122.09 C 253.40 123.24 251.00 124.80 248.41 126.00 M 220.98 126.67 C 218.50 128.59 216.44 130.98 214.54 133.46 C 217.04 133.54 219.54 133.63 222.04 133.54 C 225.38 133.54 228.19 131.31 230.55 129.17 C 227.33 128.44 224.20 127.38 220.98 126.67 M 281.15 128.87 C 282.85 130.18 284.63 131.43 286.55 132.42 C 289.61 134.17 293.30 133.37 296.66 133.39 C 294.72 130.75 292.33 128.51 290.00 126.22 C 287.02 126.99 284.03 127.76 281.15 128.87 M 236.82 133.42 C 238.68 133.40 240.53 133.26 242.38 133.09 C 241.96 132.51 241.10 131.37 240.67 130.79 C 239.36 131.64 238.06 132.48 236.82 133.42 M 265.97 132.03 C 268.77 133.44 271.87 133.91 274.98 133.84 C 273.20 130.27 269.10 131.68 265.97 132.03 M 204.56 143.53 C 207.31 142.79 209.99 141.79 212.52 140.46 C 211.35 140.06 210.17 139.73 208.97 139.47 C 207.03 140.18 205.80 141.97 204.56 143.53 M 299.91 139.77 C 301.77 141.28 303.84 142.57 306.26 142.95 C 305.16 140.30 302.73 138.90 299.91 139.77 M 189.03 139.73 C 188.35 141.12 187.61 142.48 186.84 143.82 C 186.06 145.25 185.32 146.71 184.63 148.20 C 187.23 147.72 190.02 147.61 192.37 146.29 C 194.46 144.64 196.20 142.60 198.24 140.89 L 198.59 139.67 C 195.40 139.74 192.22 139.72 189.03 139.73 M 231.87 141.97 C 228.21 143.00 224.55 144.02 220.87 144.95 C 217.11 146.04 213.20 146.84 209.81 148.87 C 201.82 153.55 193.83 158.21 185.85 162.88 C 181.10 165.63 177.59 169.93 173.69 173.70 C 169.92 177.59 165.67 181.11 162.77 185.76 C 159.70 191.39 156.41 196.90 153.26 202.49 C 150.96 206.60 148.21 210.55 147.01 215.16 C 145.98 219.05 145.07 222.98 143.93 226.84 C 142.47 233.51 139.75 240.03 140.16 246.98 C 140.49 255.64 139.53 264.39 140.72 272.99 C 143.38 282.70 145.65 292.56 148.88 302.11 C 153.15 309.42 157.31 316.80 161.53 324.15 C 164.00 328.62 168.16 331.75 171.60 335.43 C 176.86 340.50 181.76 345.99 187.27 350.79 C 194.27 355.20 201.56 359.15 208.77 363.22 C 212.13 364.15 215.49 365.09 218.85 366.04 C 229.55 368.30 239.86 373.30 251.00 372.54 C 258.39 372.31 265.83 373.02 273.18 372.08 C 280.56 370.19 287.88 368.06 295.26 366.13 C 300.10 364.94 304.17 361.94 308.46 359.53 C 315.67 355.06 323.33 351.26 330.27 346.38 C 336.07 340.74 341.92 335.10 347.37 329.13 C 353.26 319.65 358.65 309.85 364.08 300.10 C 364.39 299.11 364.71 298.13 365.04 297.15 C 366.26 292.27 367.56 287.42 368.81 282.56 C 370.09 277.44 371.93 272.36 371.73 267.01 C 371.61 258.22 371.94 249.43 371.55 240.66 C 370.23 232.93 367.56 225.49 365.71 217.88 C 364.15 210.08 359.13 203.72 355.49 196.84 C 352.28 191.67 349.99 185.77 345.41 181.60 C 338.98 175.34 332.82 168.79 326.30 162.63 C 320.34 158.34 313.64 155.22 307.40 151.37 C 302.44 148.16 296.56 147.09 290.97 145.52 C 284.03 143.67 277.13 141.65 270.18 139.89 C 261.15 139.54 252.09 139.87 243.06 139.73 C 239.18 139.51 235.57 141.11 231.87 141.97 M 312.45 139.83 C 314.52 142.56 317.02 144.93 319.58 147.20 C 322.41 147.83 325.21 148.61 328.07 149.12 C 327.12 147.33 326.14 145.56 325.10 143.83 C 324.37 142.47 323.65 141.11 322.98 139.73 C 319.47 139.72 315.95 139.68 312.45 139.83 M 179.44 155.30 C 178.99 157.20 177.36 159.14 178.25 161.12 C 180.11 159.66 181.72 157.90 183.47 156.31 C 182.12 155.97 180.78 155.65 179.44 155.30 M 328.12 156.78 C 329.09 157.55 330.10 158.26 331.11 158.99 C 332.49 160.96 333.28 159.06 333.83 157.67 C 332.05 156.83 330.03 155.53 328.12 156.78 M 160.89 161.50 C 160.31 164.82 159.31 168.06 158.79 171.40 C 161.39 170.22 164.01 168.98 166.22 167.16 C 168.25 164.68 169.55 161.70 171.14 158.93 C 167.62 159.32 164.21 160.29 160.89 161.50 M 341.57 159.74 C 342.56 161.88 343.37 164.22 345.09 165.91 C 347.37 167.77 350.10 168.96 352.71 170.28 C 352.03 167.39 351.25 164.52 350.43 161.67 C 347.51 160.88 344.57 160.15 341.57 159.74 M 350.20 177.01 C 352.16 179.27 354.08 181.74 356.78 183.15 C 356.17 179.87 353.94 176.63 350.20 177.01 M 156.62 178.48 C 156.31 179.81 156.02 181.14 155.74 182.48 C 157.69 181.57 159.08 179.91 160.40 178.28 C 159.14 178.34 157.88 178.40 156.62 178.48 M 362.86 183.59 C 363.56 186.62 364.16 189.72 365.35 192.62 C 366.88 195.12 369.26 196.99 371.62 198.68 C 371.75 195.15 371.78 191.61 371.55 188.08 C 368.63 186.62 365.84 184.93 362.86 183.59 M 140.43 189.07 C 140.10 192.18 140.15 195.30 140.26 198.43 C 142.73 196.24 145.07 193.90 147.25 191.42 C 147.54 189.42 147.89 187.43 148.19 185.43 C 145.52 186.48 143.02 187.86 140.43 189.07 M 140.12 206.56 C 140.11 208.46 140.11 210.36 140.23 212.25 C 141.88 210.00 143.06 207.44 144.14 204.88 C 142.79 205.41 141.46 205.99 140.12 206.56 M 368.83 205.22 C 369.02 207.78 370.38 209.96 371.80 212.02 C 371.91 210.61 372.00 209.20 372.09 207.79 C 371.01 206.92 369.93 206.06 368.83 205.22 M 133.48 214.66 C 130.89 216.34 128.87 218.71 126.71 220.88 C 127.55 224.21 128.42 227.53 129.50 230.79 C 131.17 228.63 132.73 226.35 133.73 223.80 C 134.29 220.71 133.93 217.52 133.84 214.40 C 133.75 214.46 133.57 214.59 133.48 214.66 M 377.82 214.48 C 377.70 217.42 377.72 220.37 377.69 223.31 C 378.86 225.40 379.99 227.52 381.00 229.70 C 381.47 229.71 382.41 229.73 382.88 229.74 C 383.43 226.83 384.16 223.95 384.83 221.06 C 382.58 218.78 380.37 216.44 377.82 214.48 M 130.82 239.52 C 131.43 240.61 132.02 241.70 132.70 242.75 C 135.55 242.57 133.96 238.48 134.02 236.62 C 132.94 237.58 131.88 238.55 130.82 239.52 M 378.31 242.47 C 378.81 242.15 379.81 241.49 380.31 241.17 C 379.64 239.57 378.97 237.96 378.23 236.40 C 377.44 238.37 378.15 240.46 378.31 242.47 M 383.91 262.89 C 384.60 262.80 385.29 262.72 385.99 262.64 C 387.02 260.35 388.24 258.14 389.52 255.98 C 389.19 255.44 388.52 254.35 388.18 253.80 C 386.86 251.83 386.17 249.18 384.06 247.89 C 382.06 252.77 382.29 257.96 383.91 262.89 M 127.79 248.88 C 127.33 249.03 126.41 249.32 125.95 249.47 C 125.05 251.77 123.80 253.90 122.50 255.99 C 123.27 257.38 124.05 258.78 124.78 260.21 C 125.75 261.68 126.74 263.14 127.84 264.53 C 129.93 259.48 130.23 253.89 127.79 248.88 M 378.73 266.70 C 377.99 269.72 378.11 272.88 378.68 275.92 C 379.28 274.98 379.87 274.04 380.46 273.10 C 379.91 270.95 379.43 268.79 378.73 266.70 M 133.83 269.45 C 133.33 270.13 132.32 271.47 131.81 272.15 C 132.56 273.16 133.32 274.17 134.10 275.17 C 134.41 273.27 135.16 271.13 133.83 269.45 M 379.83 284.77 C 379.14 286.11 378.43 287.43 377.70 288.75 C 377.73 292.00 377.69 295.25 377.82 298.50 C 380.58 296.32 383.14 293.87 385.43 291.20 C 385.04 287.65 383.70 284.28 382.89 280.82 C 381.50 281.82 380.76 283.40 379.83 284.77 M 129.84 281.54 C 128.84 284.68 128.05 287.88 127.24 291.07 C 129.41 293.25 131.56 295.46 133.90 297.46 C 133.95 294.61 134.10 291.75 133.87 288.91 C 133.23 286.15 131.39 283.85 129.84 281.54 M 140.51 298.81 C 140.27 300.40 140.05 302.01 139.85 303.62 C 140.98 304.64 142.13 305.67 143.47 306.42 C 142.68 303.81 141.61 301.30 140.51 298.81 M 367.85 308.17 C 369.18 307.49 370.51 306.78 371.83 306.08 C 371.69 303.98 371.52 301.90 371.20 299.83 C 370.04 302.59 369.07 305.43 367.85 308.17 M 140.29 313.28 C 140.11 316.81 140.19 320.35 140.22 323.89 C 143.16 325.56 146.04 327.37 149.21 328.57 C 148.48 325.46 147.96 322.25 146.57 319.36 C 144.84 316.99 142.62 315.02 140.29 313.28 M 365.77 319.81 C 364.54 321.84 364.31 324.28 363.78 326.55 C 366.51 325.43 369.04 323.91 371.60 322.45 C 371.65 319.74 371.66 317.03 371.58 314.33 C 369.45 315.94 367.39 317.68 365.77 319.81 M 352.13 333.81 C 355.19 333.49 357.24 330.93 357.66 328.01 C 355.39 329.49 353.57 331.53 352.13 333.81 M 155.46 328.52 C 156.30 330.47 156.91 332.51 157.71 334.48 C 158.79 334.93 159.92 335.29 161.04 335.63 C 159.40 333.10 158.38 329.89 155.46 328.52 M 345.74 344.81 C 343.89 347.67 342.14 350.61 340.71 353.71 C 344.18 352.92 347.58 351.88 351.04 351.06 C 351.78 347.58 352.80 344.17 353.22 340.63 C 350.65 341.89 348.19 343.34 345.74 344.81 M 159.79 342.55 C 160.26 345.22 160.94 347.85 161.63 350.47 C 164.72 351.36 167.83 352.21 170.97 352.92 C 169.79 350.81 168.77 348.60 167.29 346.68 C 165.13 344.78 162.41 343.67 159.79 342.55 M 328.49 356.58 C 329.70 356.53 330.93 356.46 332.15 356.39 C 333.76 354.47 335.12 352.36 336.20 350.09 C 333.68 352.31 330.95 354.29 328.49 356.58 M 177.86 352.83 C 178.65 354.12 179.50 355.37 180.37 356.62 C 181.06 356.50 182.44 356.25 183.13 356.13 C 181.65 354.63 180.02 353.19 177.86 352.83 M 183.87 362.95 C 185.53 366.15 187.37 369.25 188.98 372.47 C 192.52 372.58 196.06 372.61 199.60 372.44 C 198.19 370.50 196.60 368.71 194.86 367.07 C 192.04 364.09 187.61 363.88 183.87 362.95 M 319.58 365.74 C 317.42 367.83 315.11 369.85 313.57 372.48 C 316.58 372.57 319.60 372.54 322.61 372.55 C 323.14 371.76 323.66 370.98 324.19 370.20 C 325.33 368.12 326.45 366.03 327.38 363.85 C 324.75 364.36 322.16 365.01 319.58 365.74 M 205.66 368.32 C 206.94 370.61 208.58 373.03 211.47 373.22 C 211.28 372.74 210.92 371.79 210.73 371.32 C 209.05 370.30 207.39 369.25 205.66 368.32 M 299.42 372.71 C 301.20 372.59 302.98 372.42 304.74 372.11 C 305.57 370.72 306.41 369.35 307.20 367.95 C 304.26 368.79 300.83 369.66 299.42 372.71 M 236.85 379.20 C 238.84 381.56 241.99 380.72 244.67 380.48 C 244.57 380.06 244.36 379.21 244.26 378.79 C 241.79 378.82 239.30 378.83 236.85 379.20 M 269.56 378.81 C 270.62 379.77 271.73 380.69 272.82 381.63 C 273.65 380.61 274.49 379.60 275.29 378.56 C 273.37 378.60 271.46 378.68 269.56 378.81 M 215.44 378.83 C 217.39 381.37 219.73 383.58 222.00 385.84 C 224.64 385.19 227.26 384.49 229.91 383.86 C 229.84 383.40 229.69 382.47 229.62 382.00 C 227.63 381.09 225.71 380.03 223.92 378.79 C 221.09 378.69 218.26 378.69 215.44 378.83 M 285.74 379.77 C 284.27 380.76 282.81 381.77 281.43 382.88 C 284.67 383.91 287.97 384.75 291.27 385.61 C 293.43 383.41 295.68 381.28 297.56 378.83 C 294.29 378.68 291.02 378.73 287.75 378.71 C 287.25 378.97 286.24 379.50 285.74 379.77 M 247.56 385.14 C 250.07 387.22 252.93 388.79 255.86 390.18 C 256.43 389.91 257.58 389.37 258.15 389.10 C 260.07 387.88 262.07 386.78 264.13 385.79 C 263.55 383.05 260.28 383.58 258.18 382.83 C 254.55 382.62 251.13 384.56 247.56 385.14 Z" />
<path fill="#ffbd59" opacity="1.00" d=" M 238.07 198.96 C 250.73 195.18 264.45 195.51 276.88 200.00 C 287.04 203.96 296.18 210.50 302.89 219.13 C 303.71 220.26 304.56 221.36 305.42 222.46 L 305.69 223.15 C 314.25 235.80 317.51 251.92 314.64 266.92 C 312.90 276.36 308.77 285.28 302.91 292.86 C 298.86 297.83 294.21 302.34 288.85 305.90 C 285.04 308.26 281.03 310.31 276.86 311.96 C 275.87 312.30 274.89 312.65 273.91 313.01 C 262.33 316.63 249.61 316.62 238.02 313.02 C 237.05 312.67 236.07 312.31 235.10 311.97 C 232.76 311.01 230.47 309.95 228.18 308.87 C 226.50 307.88 224.81 306.90 223.13 305.91 C 216.44 301.37 210.65 295.52 206.09 288.85 C 203.14 284.12 200.65 279.10 199.01 273.77 C 195.46 262.23 195.32 249.62 199.02 238.10 C 199.35 237.10 199.69 236.11 200.03 235.12 C 205.21 221.56 215.31 209.89 228.17 203.11 C 230.46 202.04 232.76 200.98 235.10 200.02 C 236.09 199.67 237.08 199.32 238.07 198.96 M 236.92 202.50 C 225.92 206.05 216.87 213.82 209.80 222.77 C 198.77 238.02 196.36 258.63 202.85 276.21 C 206.73 286.11 213.40 294.69 221.81 301.16 C 225.64 303.79 229.51 306.42 233.83 308.21 C 247.91 313.99 264.06 313.93 278.14 308.18 C 280.17 307.20 282.21 306.23 284.21 305.19 C 290.63 301.15 296.43 296.19 301.22 290.29 C 302.52 288.26 303.86 286.25 305.19 284.24 C 307.10 280.69 308.69 276.98 310.15 273.22 C 316.23 253.40 311.15 230.42 296.15 215.87 C 293.04 212.93 289.69 210.27 286.18 207.84 C 283.01 205.88 279.65 204.26 276.22 202.83 C 263.67 198.31 249.51 197.84 236.92 202.50 Z" />
</g>
</svg>
